<?xml version="1.0" standalone="no"?>
<!DOCTYPE svg PUBLIC "-//W3C//DTD SVG 20010904//EN"
 "http://www.w3.org/TR/2001/REC-SVG-20010904/DTD/svg10.dtd">
<svg version="1.0" xmlns="http://www.w3.org/2000/svg"
 width="700.000000pt" height="700.000000pt" viewBox="0 0 700.000000 700.000000"
 preserveAspectRatio="xMidYMid meet">
<metadata>
Created by potrace 1.11, written by Peter Selinger 2001-2013
</metadata>
<g transform="translate(0.000000,700.000000) scale(0.100000,-0.100000)"
fill="#000000" stroke="none">
<path d="M3425 6995 c-5 -1 -36 -10 -67 -20 -71 -21 -135 -63 -192 -126 -196
-218 -124 -573 142 -696 l52 -24 0 -83 0 -83 -72 -8 c-40 -5 -75 -9 -78 -10
-3 0 -27 -5 -55 -9 -77 -12 -262 -71 -364 -115 -112 -49 -241 -124 -340 -200
-40 -31 -80 -60 -87 -66 -10 -7 -27 4 -67 43 l-54 53 19 54 c108 322 -199 642
-523 542 -369 -113 -410 -620 -64 -787 112 -53 233 -58 345 -12 23 9 31 5 78
-40 29 -27 52 -53 52 -57 0 -4 -21 -34 -46 -67 -148 -188 -261 -421 -321 -659
-16 -63 -42 -224 -43 -263 0 -22 -2 -23 -87 -20 l-87 3 -21 39 c-29 56 -112
138 -165 163 -292 135 -605 -103 -548 -417 21 -114 106 -221 217 -274 60 -28
75 -31 161 -31 85 0 101 3 155 29 75 37 139 96 177 163 l29 51 84 0 c46 0 84
-3 83 -7 -1 -3 2 -32 6 -65 27 -206 79 -379 167 -563 49 -102 165 -284 213
-335 14 -15 26 -32 26 -37 0 -9 -155 -170 -192 -199 -13 -10 -22 -11 -38 -2
-34 18 -60 23 -146 27 -146 8 -281 -59 -360 -177 -90 -137 -103 -282 -35 -425
109 -233 412 -313 625 -166 72 51 140 142 161 216 4 17 10 37 12 45 13 42 4
169 -14 222 l-19 56 102 102 102 102 78 -59 c219 -165 471 -280 719 -329 11
-2 31 -6 45 -9 14 -3 48 -7 75 -10 98 -11 90 -2 93 -96 l3 -84 -43 -23 c-228
-121 -273 -429 -90 -609 205 -200 539 -119 633 154 27 80 21 200 -14 274 -37
77 -95 140 -160 174 l-54 28 1 86 1 85 35 3 c38 4 193 30 225 38 11 2 38 9 61
14 195 48 479 192 636 323 47 38 48 39 70 22 13 -10 36 -32 51 -50 l28 -33
-20 -58 c-15 -44 -19 -77 -16 -138 1 -44 5 -87 8 -95 21 -72 59 -138 110 -190
165 -169 432 -172 597 -7 149 149 172 365 57 538 -103 156 -305 227 -479 168
l-61 -20 -51 50 -50 50 25 28 c92 102 207 295 272 458 37 93 81 235 91 295 3
19 8 46 11 60 3 14 8 48 10 75 11 99 4 93 99 93 l84 0 18 -40 c26 -58 111
-140 180 -173 52 -25 71 -28 154 -29 125 -1 188 23 269 102 194 191 147 497
-95 620 -178 90 -412 14 -505 -164 l-24 -45 -85 3 -85 3 -3 40 c-9 128 -72
376 -126 498 -35 80 -98 116 -169 96 -22 -6 -29 -4 -34 9 -10 26 -70 118 -129
198 l-52 71 19 29 c10 16 19 46 19 67 0 110 -111 174 -206 118 l-34 -20 -33
27 c-51 44 -140 104 -209 142 -34 18 -36 22 -31 59 14 102 -24 137 -219 201
-111 37 -324 81 -404 83 -7 0 -11 30 -11 82 l0 81 64 33 c190 99 282 303 229
508 -38 144 -142 257 -286 308 -41 15 -190 29 -215 20z"/>
<path d="M5185 6407 c-179 -46 -310 -204 -320 -388 -11 -186 95 -350 275 -422
57 -23 76 -26 160 -23 84 2 104 7 165 36 89 43 161 114 206 205 32 66 34 75
34 175 -1 123 -21 187 -84 267 -102 127 -282 189 -436 150z"/>
<path d="M480 1241 c-219 -56 -381 -211 -456 -436 -22 -66 -26 -231 -8 -315
31 -149 144 -309 277 -394 176 -111 415 -124 585 -30 102 56 142 103 142 169
0 62 -46 120 -106 131 -44 8 -81 -2 -122 -32 -202 -154 -510 14 -515 281 -2
109 26 186 94 257 111 114 241 140 395 78 94 -38 141 -36 185 6 56 54 59 145
6 195 -90 85 -322 129 -477 90z"/>
<path d="M1686 1243 c-150 -34 -271 -140 -335 -293 -28 -66 -39 -223 -30 -435
8 -195 37 -272 142 -377 115 -115 310 -165 464 -119 152 45 285 185 327 342
20 76 21 442 1 527 -42 180 -186 322 -365 358 -55 12 -148 10 -204 -3z m220
-295 c41 -28 75 -80 83 -126 4 -20 7 -119 6 -218 l-1 -182 -30 -48 c-70 -114
-216 -133 -309 -39 -56 56 -65 97 -65 307 0 161 2 177 24 224 52 111 191 150
292 82z"/>
<path d="M2514 1245 c-39 -16 -60 -42 -74 -90 -13 -45 -17 -31 110 -395 40
-113 76 -216 80 -230 56 -172 154 -440 168 -459 29 -39 64 -61 109 -67 56 -8
123 22 150 67 22 36 338 983 346 1036 6 41 -27 109 -62 127 -64 34 -148 17
-182 -35 -9 -13 -65 -171 -124 -351 -60 -180 -110 -326 -112 -325 -1 2 -37
102 -79 223 -41 120 -90 262 -109 315 -42 122 -58 152 -91 173 -33 23 -92 27
-130 11z"/>
<path d="M3765 1246 c-16 -7 -41 -26 -55 -41 l-25 -27 -3 -531 c-2 -401 0
-539 10 -562 40 -100 182 -111 239 -18 21 34 21 41 21 559 1 486 -1 528 -17
558 -33 61 -110 89 -170 62z"/>
<path d="M4323 1253 c-29 -5 -82 -60 -91 -95 -4 -16 -7 -259 -6 -541 0 -509 0
-514 22 -549 38 -61 73 -70 262 -64 183 5 184 5 268 39 130 52 244 179 299
332 39 108 50 302 24 430 -31 158 -121 298 -240 374 -96 62 -148 73 -341 75
-96 1 -185 1 -197 -1z m327 -278 c118 -27 190 -156 195 -348 1 -67 -26 -176
-58 -230 -49 -83 -125 -123 -233 -122 l-49 0 -3 355 -2 356 57 -1 c32 -1 74
-5 93 -10z"/>
<path d="M5468 1241 c-122 -62 -84 -241 56 -256 17 -2 33 -4 36 -4 3 -1 5
-198 5 -439 0 -420 1 -439 21 -472 53 -93 186 -88 236 9 14 29 16 88 16 551 0
570 1 559 -61 604 -25 18 -44 21 -153 22 -97 1 -131 -2 -156 -15z"/>
<path d="M6470 1236 c-117 -33 -212 -112 -265 -219 -39 -80 -45 -107 -46 -189
-2 -180 125 -351 300 -402 30 -9 67 -16 83 -16 25 0 27 -2 18 -19 -5 -11 -48
-59 -95 -107 -47 -48 -85 -94 -86 -103 0 -9 -2 -27 -3 -41 -10 -89 103 -165
187 -125 46 22 148 123 215 213 174 235 261 560 198 739 -72 204 -301 326
-506 269z m186 -283 c65 -42 86 -119 51 -189 -50 -104 -194 -109 -252 -10 -28
48 -31 82 -11 129 35 83 140 118 212 70z"/>
</g>
</svg>
